<svg width="120" height="160" viewBox="0 0 120 160" xmlns="http://www.w3.org/2000/svg">
  <!-- Shadow -->
  <ellipse cx="60" cy="150" rx="25" ry="8" fill="rgba(0,0,0,0.2)"></ellipse>

  <!-- Stem -->
  <rect x="57" y="80" width="6" height="60" rx="3" fill="#2e7d32"></rect>

  <!-- Leaves -->
  <path d="M57 105 C40 95, 35 110, 50 120 C58 125, 62 118, 57 105 Z" fill="#3fa746"></path>
  <path d="M63 115 C80 105, 85 120, 70 130 C62 135, 58 128, 63 115 Z" fill="#3fa746"></path>

  <!-- Flower center -->
  <circle cx="60" cy="60" r="10" fill="#ffca28"></circle>

  <!-- Petals -->
  <g fill="#ef3b82">
    <circle cx="60" cy="40" r="12"></circle>
    <circle cx="60" cy="80" r="12"></circle>
    <circle cx="40" cy="60" r="12"></circle>
    <circle cx="80" cy="60" r="12"></circle>
    <circle cx="46" cy="46" r="12"></circle>
    <circle cx="74" cy="46" r="12"></circle>
    <circle cx="46" cy="74" r="12"></circle>
    <circle cx="74" cy="74" r="12"></circle>
  </g>
</svg>
